# xmcd
#
# Track frame offsets:
#	150
#	15084
#	28044
#	43180
#	61248
#	73253
#	89250
#	102699
#	116524
#	132581
#	145387
#	165336
#	180919
#	193613
#
# Disc length: 2780 seconds
#
# Revision: 0
# Processed by: cddbd v1.5.2PL0 Copyright (c) Steve Scherf et al.
# Submitted via: EasyCDDAExtractor 11.5.3.1
#
DISCID=bf0ada0e
DTITLE=Various Artist - Mr Music Country  11 2008
DYEAR=1900
DGENRE=Country
TTITLE0=Red Jenkins (Intro.Jack Barlow) - Kings of the road
TTITLE1=Amber Digby - How you drink the wine (ext.ver.)
TTITLE2=Country Night Live (Lead.Chuck Cusimano) - Heartbreak town
TTITLE3=Earl Brewer - I write songs
TTITLE4=Kim Carson - Where's a jukebox
TTITLE5=Hugo Risan - Jukebox in my mind
TTITLE6=Mike Cowan - Talkin' to her memory again
TTITLE7=Mark Chesnutt - She never got me over you
TTITLE8=Myra Pearce - Just for the fun
TTITLE9=Leland Martin - Thank God for satellite radio
TTITLE10=Norville Dollar - She don't love her anymore
TTITLE11=Brett Hill - Lost and found
TTITLE12=The Derailers - Bad bad girl
TTITLE13=Miss Leslie - In the matter of you and me
EXTD=
EXTT0=
EXTT1=
EXTT2=
EXTT3=
EXTT4=
EXTT5=
EXTT6=
EXTT7=
EXTT8=
EXTT9=
EXTT10=
EXTT11=
EXTT12=
EXTT13=
PLAYORDER=
